<svg width="2348" height="2373" viewBox="0 0 2348 2373" fill="none" xmlns="http://www.w3.org/2000/svg">
<circle cx="1247.09" cy="2151.52" r="119.656" transform="rotate(-146.702 1247.09 2151.52)" fill="#FFE100"/>
<path d="M1154.54 2017.44C1174.8 1991.65 1264.12 1932.34 1367.08 2023.82C1393.13 2070.65 1529.12 2063.52 1606.07 1989.92C1606.07 1989.92 1753.31 1883.82 1665.4 1633.22C1577.49 1382.61 1122.3 1212.87 1122.3 1212.87C1680.35 1501.47 1573.36 1768.28 1394.77 1827.28C1361.38 1797.39 1192.99 1729.67 1162.87 1820.11C1128.09 1924.51 1091.22 1940.06 1009.84 1886.61C936.216 1838.25 943.418 1745.55 943.418 1745.55C943.418 1745.55 876.523 1781.81 867.323 1806.92C867.323 1806.92 860.621 1824.39 915.083 1915.83C969.546 2007.28 1104.69 2029.77 1154.54 2017.44Z" fill="#5D4AC5"/>
<circle cx="174.731" cy="1612" r="119.656" transform="rotate(-74.3592 174.731 1612)" fill="#FFE100"/>
<path d="M274.419 1483.15C305.146 1494.63 388.749 1561.76 332.805 1687.61C296.089 1726.63 344.13 1854.06 437.6 1905.06C437.6 1905.06 583.362 2013.17 795.498 1853.39C1007.63 1693.61 1031.31 1208.38 1031.31 1208.38C925.573 1827.68 638.877 1806.66 528.493 1654.38C546.842 1613.5 560.295 1432.5 464.986 1431.23C354.947 1429.76 331.453 1390.39 355.199 1305.57C378.946 1220.76 469.461 1199.5 469.461 1199.5C469.461 1199.5 414.621 1146.76 387.906 1145.6C387.906 1145.6 369.227 1144.52 298.609 1224.15C227.992 1303.79 247.554 1439.39 274.419 1483.15Z" fill="#5D4AC5"/>
<circle cx="342.819" cy="405.501" r="119.656" fill="#FFE100"/>
<path d="M502.36 478.622C476.793 501.369 457.488 609.911 321.214 589.969C268.695 582.283 163.98 645.751 140.068 749.51C140.068 749.51 75.2548 919.022 286.314 1080.23C497.374 1241.43 971.012 1133.41 971.012 1133.41C346.142 1198.55 289.084 916.806 405.97 769.453C422.724 748.332 628.205 740.258 603.735 648.135C575.483 541.774 609.508 508.536 695.138 508.536C783.218 508.536 828.089 589.969 828.089 589.969C828.089 589.969 864.097 522.939 858.003 496.903C858.003 496.903 854.015 478.622 758.29 432.09C662.565 385.557 537.259 440.953 502.36 478.622Z" fill="#5D4AC5"/>
<circle cx="2105.54" cy="1329.31" r="119.656" transform="rotate(145.15 2105.54 1329.31)" fill="#FFE100"/>
<path d="M1932.82 1360.46C1916.42 1332.06 1894.62 1227.08 2017.85 1165.58C2071.01 1158.83 2115.01 1029.95 2075.35 931.136C2075.35 931.136 2031.67 754.989 1766.35 743.302C1501.03 731.616 1174.06 1090.91 1174.06 1090.91C1649.64 680.385 1857.46 878.995 1845.74 1066.71C1805.57 1086.58 1680.04 1217.66 1752.77 1279.28C1836.73 1350.42 1818.69 1403.48 1757.53 1446.07C1685.24 1496.4 1601.89 1455.22 1601.89 1455.22C1601.89 1455.22 1610.64 1530.8 1630.52 1548.69C1630.52 1548.69 1644.24 1561.41 1749.38 1544.9C1854.53 1528.38 1925.71 1411.32 1932.82 1360.46Z" fill="#5D4AC5"/>
<circle cx="1552.91" cy="239.03" r="119.656" transform="rotate(71.6356 1552.91 239.03)" fill="#FFE100"/>
<path d="M1533.77 413.482C1504.11 412.893 1395.03 412.26 1371.03 276.642C1379.64 223.758 1268.55 144.991 1162.54 154.987C1162.54 154.987 981.24 146.881 894.743 397.98C808.246 649.08 1059.99 1064.56 1059.99 1064.56C801.292 492.041 1050.71 349.122 1227.39 413.63C1235.04 457.785 1325.11 615.349 1404.83 563.101C1496.88 502.778 1543.43 516.116 1566.12 605.867C1593.87 689.462 1530.72 757.704 1530.72 757.704C1530.72 757.704 1605.68 770.759 1628.47 756.773C1628.47 756.773 1644.57 747.228 1658.57 641.718C1672.58 536.207 1580.52 434.736 1533.77 413.482Z" fill="#5D4AC5"/>
</svg>
