<svg width="1968" height="1989" viewBox="0 0 1968 1989" fill="none" xmlns="http://www.w3.org/2000/svg">
<circle cx="1045.26" cy="1803.32" r="100.291" transform="rotate(-146.702 1045.26 1803.32)" fill="#FFE100"/>
<path d="M967.692 1690.94C984.671 1669.32 1059.54 1619.62 1145.83 1696.29C1167.66 1735.54 1281.65 1729.57 1346.14 1667.88C1346.14 1667.88 1469.55 1578.95 1395.87 1368.9C1322.19 1158.85 940.671 1016.58 940.671 1016.58C1408.4 1258.48 1318.73 1482.11 1169.04 1531.55C1141.05 1506.51 999.921 1449.75 974.673 1525.54C945.524 1613.06 914.616 1626.08 846.404 1581.28C784.699 1540.75 790.735 1463.06 790.735 1463.06C790.735 1463.06 734.667 1493.45 726.955 1514.49C726.955 1514.49 721.338 1529.13 766.986 1605.78C812.635 1682.42 925.909 1701.27 967.692 1690.94Z" fill="#4951E0"/>
<circle cx="146.452" cy="1351.12" r="100.291" transform="rotate(-74.3592 146.452 1351.12)" fill="#FFE100"/>
<path d="M230.007 1243.12C255.761 1252.74 325.834 1309 278.943 1414.49C248.17 1447.2 288.436 1554 366.779 1596.75C366.779 1596.75 488.95 1687.36 666.755 1553.44C844.559 1419.52 864.401 1012.82 864.401 1012.82C775.778 1531.89 535.481 1514.28 442.962 1386.64C458.341 1352.37 469.617 1200.67 389.732 1199.6C297.502 1198.37 277.81 1165.37 297.714 1094.28C317.617 1023.19 393.483 1005.38 393.483 1005.38C393.483 1005.38 347.519 961.166 325.127 960.201C325.127 960.201 309.471 959.289 250.282 1026.04C191.093 1092.78 207.489 1206.44 230.007 1243.12Z" fill="#4951E0"/>
<circle cx="287.337" cy="339.875" r="100.291" fill="#FFE100"/>
<path d="M421.058 401.166C399.629 420.231 383.448 511.207 269.228 494.492C225.209 488.05 137.441 541.246 117.399 628.213C117.399 628.213 63.0753 770.291 239.977 905.405C416.879 1040.52 813.863 949.979 813.863 949.979C290.122 1004.58 242.299 768.434 340.268 644.928C354.31 627.226 526.536 620.458 506.026 543.244C482.346 454.097 510.866 426.238 582.637 426.238C656.462 426.238 694.071 494.492 694.071 494.492C694.071 494.492 724.252 438.31 719.144 416.488C719.144 416.488 715.801 401.166 635.568 362.164C555.336 323.162 450.309 369.593 421.058 401.166Z" fill="#4951E0"/>
<circle cx="1764.78" cy="1114.18" r="100.291" transform="rotate(145.15 1764.78 1114.18)" fill="#FFE100"/>
<path d="M1620.02 1140.29C1606.27 1116.48 1588 1028.5 1691.29 976.944C1735.84 971.287 1772.72 863.268 1739.47 780.446C1739.47 780.446 1702.87 632.807 1480.48 623.011C1258.1 613.216 984.053 914.366 984.053 914.366C1382.66 570.276 1556.85 736.744 1547.02 894.082C1513.36 910.735 1408.15 1020.6 1469.1 1072.25C1539.47 1131.88 1524.36 1176.35 1473.09 1212.05C1412.5 1254.23 1342.64 1219.71 1342.64 1219.71C1342.64 1219.71 1349.97 1283.06 1366.64 1298.05C1366.64 1298.05 1378.13 1308.72 1466.26 1294.88C1554.39 1281.04 1614.05 1182.92 1620.02 1140.29Z" fill="#4951E0"/>
<circle cx="1301.59" cy="200.343" r="100.291" transform="rotate(71.6356 1301.59 200.343)" fill="#FFE100"/>
<path d="M1285.55 346.565C1260.69 346.071 1169.26 345.54 1149.14 231.871C1156.36 187.545 1063.25 121.526 974.394 129.905C974.394 129.905 822.436 123.11 749.938 333.572C677.44 544.033 888.443 892.274 888.443 892.274C671.611 412.41 880.665 292.621 1028.75 346.689C1035.16 383.697 1110.66 515.761 1177.48 471.969C1254.62 421.409 1293.65 432.588 1312.66 507.814C1335.92 577.88 1282.99 635.078 1282.99 635.078C1282.99 635.078 1345.82 646.02 1364.92 634.297C1364.92 634.297 1378.41 626.297 1390.15 537.863C1401.89 449.428 1324.73 364.379 1285.55 346.565Z" fill="#4951E0"/>
</svg>
